<svg xmlns="http://www.w3.org/2000/svg" viewBox="0 0 41 41"><g fill="none"><circle cx="20.5" cy="20.5" r="20.5" fill="#23A24D"/><path fill="#424A60" d="M12.82 14.37H6.58c-.87 0-1.58.68-1.58 1.52v9.22c0 .84.7 1.52 1.58 1.52h6.24c.28 0 .56.07.8.2l10 8.96c1.05.6 2.38-.14 2.38-1.3V6.51c0-1.17-1.33-1.9-2.38-1.3l-10 8.94c-.24.14-.52.21-.8.21z"/><path fill="#FFFFFF" d="M30.57 29a.53.53 0 0 1-.4-.2.8.8 0 0 1 0-.98c3.58-4.31 3.58-11.33 0-15.64a.8.8 0 0 1 0-.98.5.5 0 0 1 .81 0c4.03 4.85 4.03 12.75 0 17.6a.53.53 0 0 1-.4.2z"/><path fill="#FFFFFF" d="M27.54 26a.5.5 0 0 1-.38-.2.81.81 0 0 1 0-.97 8.99 8.99 0 0 0 0-10.66.81.81 0 0 1 0-.97c.21-.27.56-.27.77 0a10.61 10.61 0 0 1 0 12.6.5.5 0 0 1-.39.2zm5.12 7a.65.65 0 0 1-.47-.2.72.72 0 0 1 0-.99 16.29 16.29 0 0 0 4.48-11.31c0-4.27-1.59-8.29-4.48-11.31a.72.72 0 0 1 0-.99.64.64 0 0 1 .94 0A17.7 17.7 0 0 1 38 20.5a17.7 17.7 0 0 1-4.87 12.3c-.13.13-.3.2-.47.2z"/></g></svg>