<svg xmlns="http://www.w3.org/2000/svg" viewBox="0 0 41 41"><g fill="none"><circle cx="20.5" cy="20.5" r="20.5" fill="#23A24D"/><path fill="#424A60" d="M11.37 14.37H5.5A1.5 1.5 0 0 0 4 15.9v9.22c0 .84.67 1.52 1.49 1.52h5.88c.27 0 .53.07.76.2l9.42 8.96c1 .6 2.24-.14 2.24-1.3V6.51c0-1.17-1.25-1.9-2.24-1.3l-9.42 8.94c-.23.14-.5.21-.76.21z"/><path fill="#FFFFFF" d="M29.37 29.72a.7.7 0 0 1-.5-1.2 11.32 11.32 0 0 0 0-16 .7.7 0 1 1 1-1 12.74 12.74 0 0 1 0 18 .7.7 0 0 1-.5.2z"/><path fill="#FFFFFF" d="M26.86 26.86a.7.7 0 0 1-.5-1.2 7.8 7.8 0 0 0 0-11.02.7.7 0 1 1 1-1 9.21 9.21 0 0 1 0 13.01.7.7 0 0 1-.5.21z"/></g></svg>